<?xml version="1.0" encoding="utf-8"?>
<!-- Generator: Adobe Illustrator 24.1.0, SVG Export Plug-In . SVG Version: 6.00 Build 0)  -->
<svg version="1.1" id="Capa_1" xmlns="http://www.w3.org/2000/svg" xmlns:xlink="http://www.w3.org/1999/xlink" x="0px" y="0px"
	 viewBox="0 0 122.7 86.6" style="enable-background:new 0 0 122.7 86.6;" xml:space="preserve">
<style type="text/css">
	.st0{fill:#2F2F2F;}
	.st1{fill:#2979FF;}
	.st2{fill:#FFFFFF;}
</style>
<g id="Layer_2_4_">
	<g>
		<path class="st1" d="M95.1,31.5c-7.1,0-12.3,1.9-17.1,6.1c-0.5,0.4-1,0.9-1.4,1.3c-0.5,0.5-0.9,0.9-1.4,1.4c0,0-0.1,0.1-0.1,0.1
			L45.6,71.6c-1.9,1.9-4.1,3.6-6.5,4.9l-0.3,0.2c0,0,0,0,0,0c-2.6,1.3-5.4,2-8.3,2c-12.1,0-21.9-9.5-21.9-21.3
			c0.1-5.8,2.3-11.4,6.2-15.8c4.1-4.4,9.5-7.3,14.5-7.7c0,0,0.1,0,0.1,0l0,0c2.6-0.2,5.2-0.1,7.8,0.2c2,0.2,4,0.6,6,1.2l0.5,0.1
			c0.8,0.1,1.5-0.2,2.1-0.7c0,0,0,0,0.1-0.1l0.7-0.8c0,0,0.1-0.1,0.1-0.1l0.4-0.4c0,0,0-0.1,0.1-0.1l0.1-0.1
			c0.8-1.1,0.5-2.6-0.6-3.3c-0.2-0.2-0.5-0.3-0.7-0.3L45,29.3c-0.1,0-0.1,0-0.2-0.1c-2.7-0.8-5.4-1.4-8.2-1.7
			c-0.5-0.1-1-0.1-1.5-0.2c1.6-4.8,5.3-9.6,10.3-13.2c5.4-4,12-6.2,18.8-6.2c7.7,0.1,14.6,2.7,19.5,7.1c1,0.9,2,2,2.9,3
			c0.4,0.4,0.9,0.7,1.4,0.9c0.6,0.1,1.1,0,1.6-0.2c0.2-0.1,0.4-0.3,0.6-0.4l0.1-0.1c0.1-0.1,0.1-0.1,0.1-0.1l0.3-0.4
			c0,0,0.1-0.1,0.2-0.2l0.5-0.6c0.3-0.4,0.5-0.8,0.5-1.3c0-0.6-0.1-1.1-0.4-1.5c0,0-0.1-0.1-0.1-0.1l-0.1-0.1
			c-0.2-0.2-0.4-0.5-0.6-0.7c-6.6-8-17.2-13-28.4-13.2c-0.3,0-0.5,0-0.8,0C45.3,0,29.5,12.2,26.1,27.3c-0.3,0-0.6,0.1-1,0.1l-0.1,0
			c-6.8,1-13.1,4.4-17.7,9.5c-5,5.4-7.4,12-7.4,20.1c0,16.6,13.3,29.5,30.3,29.5c6.4,0,12.5-2.1,17.6-6c1.6-1.4,3.2-2.8,4.7-4.4
			L77,50.1c1.7-2.1,3.6-4,5.6-5.9l0.6-0.6c3.5-3,8-4.6,12.5-4.4c10.5,0,19.4,9.2,19.4,20c-0.2,5.3-2.3,10.3-5.8,14.1
			c-3.5,3.7-8.2,6-13.3,6.5c0,0-0.1,0-0.1,0c-2.3,0.2-4.7,0.1-7-0.2c-1.8-0.2-3.6-0.6-5.4-1.1l-0.4-0.1c0,0-0.1,0-0.1,0
			c-0.5,0-0.9,0-1.3,0.2c-0.2,0.1-0.4,0.3-0.6,0.4L80.3,80c-0.1,0.1-0.1,0.1-0.2,0.2l-0.5,0.6c-0.8,1.1-0.6,2.6,0.5,3.4
			c0.2,0.2,0.4,0.3,0.7,0.4l0.9,0.3c0.6,0.2,1.2,0.4,1.9,0.5c1.8,0.4,3.6,0.8,5.4,1c0.8,0.1,1.6,0.2,2.5,0.2
			c0.8,0.1,1.7,0.1,2.6,0.1c0.3,0,0.5,0,0.8,0c0.6,0,1.2,0,1.8,0c0.5,0,0.9,0,1.4-0.1c0.5,0,0.9-0.1,1.4-0.2
			c6.4-0.9,12.2-4,16.5-8.7c4.5-4.9,6.7-10.9,6.7-18.3C122.7,44,110.4,31.6,95.1,31.5z"/>
	</g>
</g>
</svg>
